<svg xmlns="http://www.w3.org/2000/svg" width="10" height="10" viewBox="0 0 10 10" fill="none">
<path d="M7.18511 4.99995C7.18398 5.08278 7.15194 5.16219 7.09526 5.22261L3.97026 8.34761C3.90955 8.39744 3.83246 8.42291 3.75401 8.41905C3.67556 8.4152 3.60134 8.3823 3.5458 8.32676C3.49026 8.27122 3.45736 8.197 3.45351 8.11855C3.44965 8.04009 3.47512 7.96301 3.52495 7.90229L6.4312 4.99995L3.52495 2.09761C3.47512 2.03689 3.44965 1.95981 3.45351 1.88135C3.45736 1.8029 3.49026 1.72868 3.5458 1.67314C3.60134 1.6176 3.67556 1.5847 3.75401 1.58085C3.83246 1.577 3.90955 1.60246 3.97026 1.65229L7.09526 4.77729C7.15194 4.83771 7.18398 4.91712 7.18511 4.99995Z" fill="#AEAFB2"/>
</svg>