<?xml version="1.0" encoding="UTF-8"?>
<svg id="Layer_2" data-name="Layer 2" xmlns="http://www.w3.org/2000/svg" viewBox="0 0 427.79 417.32">
  <defs>
    <style>
      .cls-1 {
        fill: #fff;
      }
    </style>
  </defs>
  <g id="Layer_1-2" data-name="Layer 1">
    <g>
      <polygon class="cls-1" points="415.49 285.42 371.19 208.62 349.13 167.35 325.32 208.62 381.55 306.08 351.23 357.63 265.2 208.62 351.06 59.96 381.08 112 366.33 137.56 388.97 177.83 426.95 112 373.14 18.75 362.96 1.1 339.28 .91 230.64 189.03 219.33 208.62 231.17 229.15 339.81 417.31 362.17 417.32 372.81 399.26 427.79 305.83 415.49 285.42"/>
      <polygon class="cls-1" points="362.96 1.1 339.28 .91 229.85 0 220.09 20.87 175.73 97.63 155.68 137.35 198.65 137.35 254.93 39.93 314.74 40.42 228.94 189.03 228.71 189.41 57.03 189.41 57.37 188.82 87.09 137.37 123.77 137.37 145.2 97.63 64.16 97.64 11.54 188.76 0 208.76 11.48 229.11 57.13 229.13 229.06 229.15 251.66 229.15 263.29 209 373.14 18.75 362.96 1.1"/>
      <polygon class="cls-1" points="263.29 209 251.81 189.05 230.64 189.03 228.94 189.03 57.37 188.82 11.54 188.77 0 208.76 11.48 229.11 63.01 320.34 87.07 320.34 175.73 320.46 221.56 320.46 198.71 280.77 86.2 280.62 57.13 229.13 56.8 228.55 228.83 228.75 229.06 229.15 314.48 377.53 254.4 377.45 239.55 351.69 193.72 351.69 231.42 417.14 339.81 417.31 362.16 417.32 372.82 399.26 263.29 209"/>
    </g>
  </g>
</svg>