<?xml version="1.0" encoding="UTF-8"?>
<svg id="Layer_2" data-name="Layer 2" xmlns="http://www.w3.org/2000/svg" viewBox="0 0 1693.75 466.39">
  <defs>
    <style>
      .cls-1 {
        fill: #fff;
      }
    </style>
  </defs>
  <g id="Layer_1-2" data-name="Layer 1">
    <g>
      <polygon class="cls-1" points="464.34 318.99 414.83 233.15 390.18 187.03 363.57 233.15 426.42 342.07 392.53 399.68 296.39 233.15 392.34 67.02 425.89 125.17 409.4 153.73 434.7 198.74 477.15 125.17 417.01 20.95 405.64 1.23 379.17 1.02 257.76 211.26 245.12 233.15 258.35 256.09 379.76 466.37 404.75 466.39 416.65 446.21 478.08 341.79 464.34 318.99"/>
      <polygon class="cls-1" points="405.64 1.23 379.17 1.02 256.87 0 245.96 23.32 196.39 109.11 173.99 153.5 222.01 153.5 284.91 44.63 351.75 45.18 255.86 211.26 255.61 211.68 63.74 211.68 64.12 211.02 97.33 153.52 138.32 153.52 162.27 109.11 71.71 109.13 12.89 210.96 0 233.3 12.83 256.05 63.84 256.07 255.99 256.09 281.25 256.09 294.25 233.58 417.01 20.95 405.64 1.23"/>
      <polygon class="cls-1" points="294.25 233.58 281.42 211.27 257.76 211.25 255.86 211.25 64.12 211.02 12.9 210.96 0 233.3 12.83 256.05 70.42 358.01 97.31 358.01 196.39 358.14 247.62 358.14 222.08 313.79 96.34 313.62 63.84 256.07 63.48 255.42 255.73 255.65 255.99 256.09 351.45 421.92 284.32 421.83 267.72 393.04 216.5 393.04 258.63 466.18 379.76 466.37 404.75 466.39 416.65 446.21 294.25 233.58"/>
      <g>
        <path class="cls-1" d="m620.39,370.46c-7.74-4.74-14-11-18.75-18.75-4.74-7.75-7.12-16.38-7.12-25.88V93.31h49.13v66.76h84.75v49.13h-84.75v114.76c0,1.26.43,2.32,1.31,3.19.87.88,1.93,1.32,3.18,1.32h80.26v49.13h-82.13c-9.51,0-18.13-2.38-25.89-7.13"/>
        <path class="cls-1" d="m761.01,377.59v-165.77c0-9.5,2.38-18.12,7.13-25.88,4.76-7.74,11.07-13.99,18.94-18.74,7.88-4.76,16.45-7.13,25.69-7.13h120.76v49.13h-118.88c-1.25,0-2.31.44-3.2,1.32-.86.87-1.3,1.94-1.3,3.18v163.89h-49.14Z"/>
        <path class="cls-1" d="m988.1,370.46c-7.87-4.74-14.14-11-18.75-18.75-4.62-7.75-6.94-16.38-6.94-25.88v-165.76h49.13v163.89c0,1.26.43,2.32,1.32,3.19.86.88,1.93,1.32,3.18,1.32h113.64c1.25,0,2.31-.44,3.2-1.32.86-.87,1.31-1.93,1.31-3.19v-163.89h49.13v165.76c0,9.51-2.31,18.13-6.94,25.88-4.63,7.75-10.82,14.01-18.56,18.75-7.76,4.75-16.5,7.13-26.26,7.13h-117.38c-9.5,0-18.2-2.38-26.07-7.13"/>
        <path class="cls-1" d="m1239.2,370.46c-7.76-4.74-14.02-11-18.76-18.75-4.75-7.75-7.13-16.38-7.13-25.88v-8.25h49.14v6.37c0,1.26.43,2.32,1.3,3.19.88.88,1.94,1.32,3.19,1.32h113.64c1.25,0,2.31-.44,3.18-1.32.89-.87,1.32-1.93,1.32-3.19v-25.88c0-1.25-.43-2.3-1.32-3.19-.86-.87-1.93-1.31-3.18-1.31h-115.52c-9.51,0-18.13-2.37-25.87-7.13-7.76-4.74-14.02-10.99-18.76-18.74-4.75-7.75-7.13-16.38-7.13-25.88v-30.01c0-9.5,2.38-18.12,7.13-25.88,4.74-7.74,11-13.99,18.76-18.75,7.74-4.75,16.36-7.12,25.87-7.12h117.38c9.76,0,18.51,2.37,26.25,7.12,7.76,4.76,14,11.01,18.76,18.75,4.74,7.76,7.12,16.38,7.12,25.88v8.25h-49.51v-6.37c0-1.25-.43-2.31-1.32-3.19-.86-.87-1.93-1.31-3.18-1.31h-113.64c-1.25,0-2.31.44-3.19,1.31-.87.88-1.3,1.94-1.3,3.19v25.87c0,1.26.43,2.31,1.3,3.19.88.88,1.94,1.31,3.19,1.31h115.5c9.76,0,18.51,2.38,26.25,7.13,7.76,4.75,14,11,18.76,18.75,4.74,7.75,7.12,16.38,7.12,25.88v30c0,9.51-2.38,18.13-7.12,25.88-4.76,7.75-11.01,14.01-18.76,18.75-7.74,4.75-16.49,7.13-26.25,7.13h-117.38c-9.51,0-18.13-2.38-25.87-7.13"/>
        <path class="cls-1" d="m1472.85,377.59V88.81h49.13v71.26h120.01c9.49,0,18.11,2.37,25.87,7.13,7.74,4.75,14,11,18.75,18.74,4.76,7.76,7.14,16.38,7.14,25.88v165.77h-49.14v-163.89c0-1.25-.43-2.31-1.32-3.18-.86-.88-1.93-1.32-3.18-1.32h-113.64c-1.25,0-2.31.44-3.18,1.32-.88.87-1.31,1.94-1.31,3.18v163.89h-49.13Z"/>
      </g>
    </g>
  </g>
</svg>